<svg width="30" height="30" viewBox="0 0 30 30" fill="none" xmlns="http://www.w3.org/2000/svg">
<path d="M21.285 0H8.715C3.255 0 0 3.255 0 8.715V21.27C0 26.745 3.255 30 8.715 30H21.27C26.73 30 29.985 26.745 29.985 21.285V8.715C30 3.255 26.745 0 21.285 0ZM21.615 11.745C20.7 14.355 18.24 16.11 15.48 16.11C15.465 16.11 15.465 16.11 15.45 16.11L12.36 16.095C12.36 16.095 12.36 16.095 12.345 16.095C11.205 16.095 10.215 16.86 9.915 17.955C11.25 18.375 12.225 19.62 12.225 21.09C12.225 22.905 10.74 24.39 8.925 24.39C7.11 24.39 5.625 22.905 5.625 21.09C5.625 19.755 6.435 18.6 7.575 18.09V11.55C6.435 11.1 5.625 9.99 5.625 8.7C5.625 7.005 7.005 5.625 8.7 5.625C10.395 5.625 11.775 7.005 11.775 8.7C11.775 10.005 10.965 11.1 9.825 11.55V14.58C10.56 14.115 11.43 13.845 12.345 13.845H12.36L15.45 13.86C17.22 13.92 18.795 12.78 19.425 11.13C18.69 10.56 18.21 9.69 18.21 8.7C18.21 7.005 19.59 5.625 21.285 5.625C22.98 5.625 24.36 7.005 24.36 8.7C24.375 10.29 23.16 11.58 21.615 11.745Z" fill="#F5F5F5"/>
</svg>
