<svg width="36" height="36" viewBox="0 0 36 36" fill="none" xmlns="http://www.w3.org/2000/svg">
<path d="M24.285 3H11.715C6.255 3 3 6.255 3 11.715V24.27C3 29.745 6.255 33 11.715 33H24.27C29.73 33 32.985 29.745 32.985 24.285V11.715C33 6.255 29.745 3 24.285 3ZM24.615 14.745C23.7 17.355 21.24 19.11 18.48 19.11C18.465 19.11 18.465 19.11 18.45 19.11L15.36 19.095C15.36 19.095 15.36 19.095 15.345 19.095C14.205 19.095 13.215 19.86 12.915 20.955C14.25 21.375 15.225 22.62 15.225 24.09C15.225 25.905 13.74 27.39 11.925 27.39C10.11 27.39 8.625 25.905 8.625 24.09C8.625 22.755 9.435 21.6 10.575 21.09V14.55C9.435 14.1 8.625 12.99 8.625 11.7C8.625 10.005 10.005 8.625 11.7 8.625C13.395 8.625 14.775 10.005 14.775 11.7C14.775 13.005 13.965 14.1 12.825 14.55V17.58C13.56 17.115 14.43 16.845 15.345 16.845H15.36L18.45 16.86C20.22 16.92 21.795 15.78 22.425 14.13C21.69 13.56 21.21 12.69 21.21 11.7C21.21 10.005 22.59 8.625 24.285 8.625C25.98 8.625 27.36 10.005 27.36 11.7C27.375 13.29 26.16 14.58 24.615 14.745Z" fill="#3D4041"/>
</svg>
