<svg width="30" height="30" viewBox="0 0 30 30" fill="none" xmlns="http://www.w3.org/2000/svg">
<path d="M11.5928 0.388672C5.42275 1.82173 0.713164 7.06217 0.0739746 13.5H6.07091C6.44697 9.4702 8.25356 5.66542 9.96828 2.84566C10.5253 1.92974 11.0817 1.1029 11.5928 0.388672Z" fill="#3D4041"/>
<path d="M0.0739746 16.5C0.713164 22.9379 5.42275 28.1783 11.5928 29.6114C11.0817 28.8972 10.5253 28.0703 9.96828 27.1544C8.25356 24.3346 6.44697 20.5299 6.07091 16.5H0.0739746Z" fill="#3D4041"/>
<path d="M18.407 29.6114C18.9181 28.8972 19.4746 28.0703 20.0315 27.1544C21.7463 24.3346 23.5528 20.5299 23.9289 16.5H29.9258C29.2867 22.9379 24.5771 28.1783 18.407 29.6114Z" fill="#3D4041"/>
<path d="M29.9258 13.5H23.9289C23.5529 9.4702 21.7463 5.66542 20.0315 2.84566C19.4746 1.92974 18.9181 1.1029 18.407 0.388672C24.5771 1.82173 29.2867 7.06217 29.9258 13.5Z" fill="#3D4041"/>
<path d="M17.4683 4.4044C19.0497 7.00497 20.544 10.2374 20.9132 13.5H9.08665C9.45586 10.2374 10.9501 7.00497 12.5315 4.4044C13.4277 2.93067 14.3254 1.70273 14.9999 0.842705C15.6744 1.70273 16.5721 2.93067 17.4683 4.4044Z" fill="#3D4041"/>
<path d="M12.5315 25.5957C10.9501 22.9951 9.45586 19.7627 9.08665 16.5H20.9132C20.544 19.7627 19.0497 22.9951 17.4683 25.5957C16.5721 27.0694 15.6744 28.2973 14.9999 29.1574C14.3254 28.2973 13.4277 27.0694 12.5315 25.5957Z" fill="#3D4041"/>
</svg>
