<svg width="30" height="30" viewBox="0 0 30 30" fill="none" xmlns="http://www.w3.org/2000/svg">
<path d="M11.5928 0.388641C5.42275 1.8217 0.713164 7.06214 0.0739746 13.5H6.07091C6.44697 9.47017 8.25356 5.66539 9.96828 2.84563C10.5253 1.92971 11.0817 1.10287 11.5928 0.388641Z" fill="#F5F5F5"/>
<path d="M0.0739746 16.5C0.713164 22.9379 5.42275 28.1783 11.5928 29.6114C11.0817 28.8971 10.5253 28.0703 9.96828 27.1544C8.25356 24.3346 6.44697 20.5298 6.07091 16.5H0.0739746Z" fill="#F5F5F5"/>
<path d="M18.407 29.6114C18.9181 28.8971 19.4746 28.0703 20.0315 27.1544C21.7463 24.3346 23.5528 20.5298 23.9289 16.5H29.9258C29.2867 22.9379 24.5771 28.1783 18.407 29.6114Z" fill="#F5F5F5"/>
<path d="M29.9258 13.5H23.9289C23.5529 9.47017 21.7463 5.66539 20.0315 2.84563C19.4746 1.92971 18.9181 1.10287 18.407 0.388641C24.5771 1.8217 29.2867 7.06214 29.9258 13.5Z" fill="#F5F5F5"/>
<path d="M17.4683 4.40437C19.0497 7.00494 20.544 10.2373 20.9132 13.5H9.08665C9.45586 10.2373 10.9501 7.00494 12.5315 4.40437C13.4277 2.93064 14.3254 1.70269 14.9999 0.842674C15.6744 1.70269 16.5721 2.93064 17.4683 4.40437Z" fill="#F5F5F5"/>
<path d="M12.5315 25.5956C10.9501 22.9951 9.45586 19.7627 9.08665 16.5H20.9132C20.544 19.7627 19.0497 22.9951 17.4683 25.5956C16.5721 27.0694 15.6744 28.2973 14.9999 29.1573C14.3254 28.2973 13.4277 27.0694 12.5315 25.5956Z" fill="#F5F5F5"/>
</svg>
