<svg width="36" height="36" viewBox="0 0 36 36" fill="none" xmlns="http://www.w3.org/2000/svg">
<path fill-rule="evenodd" clip-rule="evenodd" d="M30.6034 20.3701C31.1399 20.6551 31.5538 21.1051 31.845 21.5551C32.4122 22.4851 32.3662 23.6251 31.8144 24.6301L30.7413 26.4301C30.1741 27.3901 29.1164 27.9901 28.028 27.9901C27.4915 27.9901 26.8937 27.8401 26.4031 27.5401C26.0046 27.2851 25.5447 27.1951 25.0541 27.1951C23.5365 27.1951 22.2642 28.4401 22.2182 29.9251C22.2182 31.6501 20.8079 33.0001 19.045 33.0001H16.9602C15.182 33.0001 13.7717 31.6501 13.7717 29.9251C13.7411 28.4401 12.4687 27.1951 10.9511 27.1951C10.4453 27.1951 9.98537 27.2851 9.60214 27.5401C9.1116 27.8401 8.49843 27.9901 7.97723 27.9901C6.87351 27.9901 5.81579 27.3901 5.2486 26.4301L4.19088 24.6301C3.62369 23.6551 3.59303 22.4851 4.16022 21.5551C4.40549 21.1051 4.86537 20.6551 5.38657 20.3701C5.81579 20.1601 6.09172 19.8151 6.35232 19.4101C7.11878 18.1201 6.6589 16.4251 5.35591 15.6601C3.8383 14.8051 3.34776 12.9001 4.22154 11.4151L5.2486 9.64512C6.13771 8.16012 8.03855 7.63512 9.57148 8.50512C10.9051 9.22512 12.6374 8.74512 13.4192 7.47012C13.6644 7.05012 13.8024 6.60012 13.7717 6.15012C13.7411 5.56512 13.9097 5.01012 14.2009 4.56012C14.7681 3.63012 15.7952 3.03012 16.9142 3.00012H19.0757C20.2101 3.00012 21.2371 3.63012 21.8043 4.56012C22.0802 5.01012 22.2642 5.56512 22.2182 6.15012C22.1875 6.60012 22.3255 7.05012 22.5708 7.47012C23.3526 8.74512 25.0848 9.22512 26.4338 8.50512C27.9514 7.63512 29.8676 8.16012 30.7413 9.64512L31.7684 11.4151C32.6575 12.9001 32.167 14.8051 30.634 15.6601C29.331 16.4251 28.8711 18.1201 29.6529 19.4101C29.8982 19.8151 30.1741 20.1601 30.6034 20.3701ZM13.6644 18.0151C13.6644 20.3701 15.6112 22.2451 18.018 22.2451C20.4247 22.2451 22.3255 20.3701 22.3255 18.0151C22.3255 15.6601 20.4247 13.7701 18.018 13.7701C15.6112 13.7701 13.6644 15.6601 13.6644 18.0151Z" fill="#3D4041"/>
</svg>
