<svg width="30" height="30" viewBox="0 0 30 30" fill="none" xmlns="http://www.w3.org/2000/svg">
<path fill-rule="evenodd" clip-rule="evenodd" d="M27.6034 17.3702C28.1399 17.6552 28.5538 18.1052 28.845 18.5552C29.4122 19.4852 29.3662 20.6252 28.8144 21.6302L27.7413 23.4302C27.1741 24.3902 26.1164 24.9902 25.028 24.9902C24.4915 24.9902 23.8937 24.8402 23.4031 24.5402C23.0046 24.2852 22.5447 24.1952 22.0541 24.1952C20.5365 24.1952 19.2642 25.4402 19.2182 26.9252C19.2182 28.6502 17.8079 30.0002 16.045 30.0002H13.9602C12.182 30.0002 10.7717 28.6502 10.7717 26.9252C10.7411 25.4402 9.46873 24.1952 7.95112 24.1952C7.44526 24.1952 6.98537 24.2852 6.60214 24.5402C6.1116 24.8402 5.49843 24.9902 4.97723 24.9902C3.87351 24.9902 2.81579 24.3902 2.2486 23.4302L1.19088 21.6302C0.623691 20.6552 0.593032 19.4852 1.16022 18.5552C1.40549 18.1052 1.86537 17.6552 2.38657 17.3702C2.81579 17.1602 3.09172 16.8152 3.35232 16.4102C4.11878 15.1202 3.6589 13.4252 2.35591 12.6602C0.838302 11.8052 0.347762 9.90015 1.22154 8.41515L2.2486 6.64515C3.13771 5.16015 5.03855 4.63515 6.57148 5.50515C7.90514 6.22515 9.63735 5.74515 10.4192 4.47015C10.6644 4.05015 10.8024 3.60015 10.7717 3.15015C10.7411 2.56515 10.9097 2.01015 11.2009 1.56015C11.7681 0.630153 12.7952 0.0301526 13.9142 0.000152588H16.0757C17.2101 0.000152588 18.2371 0.630153 18.8043 1.56015C19.0802 2.01015 19.2642 2.56515 19.2182 3.15015C19.1875 3.60015 19.3255 4.05015 19.5708 4.47015C20.3526 5.74515 22.0848 6.22515 23.4338 5.50515C24.9514 4.63515 26.8676 5.16015 27.7413 6.64515L28.7684 8.41515C29.6575 9.90015 29.167 11.8052 27.634 12.6602C26.331 13.4252 25.8711 15.1202 26.6529 16.4102C26.8982 16.8152 27.1741 17.1602 27.6034 17.3702ZM10.6644 15.0152C10.6644 17.3702 12.6112 19.2452 15.018 19.2452C17.4247 19.2452 19.3255 17.3702 19.3255 15.0152C19.3255 12.6602 17.4247 10.7702 15.018 10.7702C12.6112 10.7702 10.6644 12.6602 10.6644 15.0152Z" fill="#F5F5F5"/>
</svg>
