<svg width="60" height="60" viewBox="0 0 60 60" fill="none" xmlns="http://www.w3.org/2000/svg">
<path d="M37.6269 0H22.3731C10.0168 0 0 10.0168 0 22.3731V37.6269C0 49.9832 10.0168 60 22.3731 60H37.6269C49.9832 60 60 49.9832 60 37.6269V22.3731C60 10.0168 49.9832 0 37.6269 0Z" fill="white"/>
<path d="M29.9694 49.7944C40.917 49.7944 49.7919 40.9196 49.7919 29.9719C49.7919 19.0242 40.917 10.1494 29.9694 10.1494C19.0217 10.1494 10.1469 19.0242 10.1469 29.9719C10.1469 40.9196 19.0217 49.7944 29.9694 49.7944Z" fill="url(#paint0_linear_328_797)"/>
<path d="M49.4056 25.8063H10.6619C10.0519 28.6015 10.0519 31.4954 10.6619 34.2907H49.3962C49.6931 32.9294 49.8466 31.5408 49.8544 30.1475V29.9188C49.8468 28.536 49.6952 27.1577 49.4019 25.8063H49.4056ZM14.8493 42.7757C16.65 44.9264 18.8876 46.6694 21.4135 47.8891C23.9394 49.1088 26.6959 49.7773 29.5 49.85H30.5718C33.3759 49.7774 36.1325 49.109 38.6584 47.8893C41.1843 46.6696 43.4219 44.9265 45.2225 42.7757H14.8493ZM45.2481 17.3213C43.4176 15.1266 41.1333 13.3546 38.5523 12.1273C35.9714 10.9 33.1552 10.2466 30.2975 10.2119H29.7743C26.9171 10.2469 24.1013 10.9004 21.5207 12.1276C18.9401 13.3548 16.6561 15.1264 14.8256 17.3207L45.2481 17.3213Z" fill="#1A1918"/>
<defs>
<linearGradient id="paint0_linear_328_797" x1="30.9605" y1="667.027" x2="30.9605" y2="665.204" gradientUnits="userSpaceOnUse">
<stop stop-color="#FCD755"/>
<stop offset="1" stop-color="#FEC819"/>
</linearGradient>
</defs>
</svg>
