<svg width="25" height="24" viewBox="0 0 25 24" fill="none" xmlns="http://www.w3.org/2000/svg">
<path fill-rule="evenodd" clip-rule="evenodd" d="M3 10.6699C3 5.88166 6.84034 2 11.5776 2C13.8526 2 16.0343 2.91344 17.6429 4.53936C19.2516 6.16529 20.1553 8.37052 20.1553 10.6699C20.1553 15.4582 16.3149 19.3399 11.5776 19.3399C6.84034 19.3399 3 15.4582 3 10.6699ZM20.0134 17.6543L22.568 19.7164H22.6124C23.1292 20.2388 23.1292 21.0858 22.6124 21.6082C22.0955 22.1306 21.2576 22.1306 20.7407 21.6082L18.6207 19.1785C18.4203 18.9766 18.3076 18.7024 18.3076 18.4164C18.3076 18.1304 18.4203 17.8562 18.6207 17.6543C19.0072 17.2704 19.6268 17.2704 20.0134 17.6543Z" fill="#FF6B12"/>
<circle cx="11.6" cy="10.6" r="6.1" fill="white"/>
<path fill-rule="evenodd" clip-rule="evenodd" d="M8.6855 3.5H14.321C16.5245 3.5 18 5.2255 18 7.792V13.716C18 16.2745 16.5245 18 14.321 18H8.6855C6.482 18 5 16.2745 5 13.716V7.792C5 5.2255 6.482 3.5 8.6855 3.5ZM11.1295 12.9183L14.217 9.47458C14.438 9.22808 14.438 8.82933 14.217 8.57558C13.996 8.32908 13.632 8.32908 13.411 8.57558L10.7265 11.5698L9.589 10.3011C9.368 10.0546 9.004 10.0546 8.783 10.3011C8.562 10.5476 8.562 10.9463 8.783 11.2001L10.33 12.9183C10.4405 13.0416 10.5835 13.0996 10.7265 13.0996C10.876 13.0996 11.019 13.0416 11.1295 12.9183Z" fill="#FF6B12"/>
</svg>
