<svg width="96" height="96" viewBox="0 0 96 96" fill="none" xmlns="http://www.w3.org/2000/svg">
<circle cx="48" cy="48" r="48" fill="white"/>
<g clip-path="url(#clip0_235_4777)">
<path d="M60.8064 30.9249C60.2592 30.6728 59.6143 30.7709 59.1667 31.1742L56.8049 33.2654C56.7406 33.3226 56.6437 33.3223 56.5798 33.2648L53.3663 30.3906C52.7851 29.8698 51.9052 29.8698 51.324 30.3906L48.1133 33.2621C48.0487 33.3198 47.9511 33.3198 47.8866 33.2621L44.6756 30.3906C44.0944 29.8699 43.2145 29.8699 42.6333 30.3906L39.4193 33.2648C39.355 33.3223 39.2578 33.3225 39.1931 33.2654L36.8292 31.1742C36.202 30.6165 35.2415 30.6728 34.6838 31.2999C34.4337 31.5812 34.2968 31.9452 34.2997 32.3215V63.6786C34.2941 64.5192 34.971 65.2051 35.8115 65.2107C36.1881 65.2133 36.5521 65.0761 36.8334 64.8259L39.1953 62.7346C39.2595 62.6775 39.3564 62.6778 39.4203 62.7353L42.6339 65.6095C43.2151 66.1303 44.095 66.1303 44.6762 65.6095L47.8872 62.738C47.9517 62.6803 48.0493 62.6803 48.1139 62.738L51.3249 65.6094C51.9062 66.1299 52.786 66.1299 53.3672 65.6094L56.5813 62.7352C56.6457 62.6777 56.7429 62.6775 56.8075 62.7346L59.1715 64.8258C59.7989 65.3832 60.7594 65.3266 61.3168 64.6991C61.5665 64.4182 61.7031 64.0546 61.7004 63.6786V32.3215C61.7084 31.7191 61.3568 31.1698 60.8064 30.9249ZM39.9336 42.2136H48.4079C48.7839 42.2136 49.0887 42.5184 49.0887 42.8943C49.0887 43.2703 48.7839 43.5751 48.4079 43.5751H39.9336C39.5577 43.5751 39.2529 43.2703 39.2529 42.8943C39.2529 42.5184 39.5577 42.2136 39.9336 42.2136ZM56.0665 53.7865H39.9336C39.5577 53.7865 39.2529 53.4817 39.2529 53.1058C39.2529 52.7298 39.5577 52.425 39.9336 52.425H56.0665C56.4425 52.425 56.7473 52.7298 56.7473 53.1058C56.7473 53.4817 56.4425 53.7865 56.0665 53.7865ZM56.0665 48.6808H39.9336C39.5577 48.6808 39.2529 48.376 39.2529 48C39.2529 47.6241 39.5577 47.3193 39.9336 47.3193H56.0665C56.4425 47.3193 56.7473 47.6241 56.7473 48C56.7473 48.376 56.4425 48.6808 56.0665 48.6808Z" fill="#FF6B12"/>
</g>
<defs>
<clipPath id="clip0_235_4777">
<rect width="36" height="36" fill="white" transform="translate(30 30)"/>
</clipPath>
</defs>
</svg>
