<svg width="114" height="36" viewBox="0 0 114 36" fill="none" xmlns="http://www.w3.org/2000/svg">
<path d="M12.7142 15.7209C12.7142 12.8911 10.7751 10.69 7.97821 10.69C5.14942 10.69 3.21035 12.8911 3.21035 15.7209C3.21035 18.5509 5.14942 20.752 7.97821 20.752C10.7751 20.752 12.7142 18.5509 12.7142 15.7209ZM0 30.1533V7.86053H3.4963V9.96699C4.38631 8.70942 6.32509 7.54614 8.61384 7.54614C12.9683 7.54614 16.2739 11.2245 16.2739 15.7209C16.2739 20.2175 12.9683 23.8959 8.61384 23.8959C6.32509 23.8959 4.38631 22.7326 3.4963 21.4753V30.1533H0Z" fill="black"/>
<path d="M30.8874 15.7208C30.8874 12.891 28.9484 10.6903 26.1514 10.6903C23.3545 10.6903 21.4154 12.891 21.4154 15.7208C21.4154 18.5512 23.3545 20.7519 26.1514 20.7519C28.9483 20.7519 30.8874 18.5512 30.8874 15.7208ZM17.8554 15.7208C17.8554 11.2245 21.1614 7.54639 25.5158 7.54639C27.8043 7.54639 29.7115 8.70939 30.6012 9.96696V7.86078H34.0978V23.5812H30.6012V21.4756C29.7115 22.7326 27.8043 23.8959 25.5158 23.8959C21.1614 23.8959 17.8554 20.2175 17.8554 15.7208Z" fill="black"/>
<path d="M65.9978 15.721C65.9978 12.8912 64.0591 10.6904 61.2619 10.6904C58.4649 10.6904 56.5259 12.8912 56.5259 15.721C56.5259 18.5513 58.465 20.7521 61.2619 20.7521C64.0591 20.7521 65.9978 18.5513 65.9978 15.721ZM52.9659 15.721C52.9659 11.2246 56.2718 7.54651 60.6262 7.54651C62.915 7.54651 64.8219 8.70952 65.7119 9.96708V0H69.2082V23.5813H65.7119V21.4757C64.8219 22.7327 62.915 23.896 60.6262 23.896C56.2718 23.896 52.9659 20.2176 52.9659 15.721Z" fill="#FF6B12"/>
<path d="M84.8421 15.7208C84.8421 12.891 82.903 10.6903 80.1061 10.6903C77.3092 10.6903 75.3701 12.891 75.3701 15.7208C75.3701 18.5512 77.3091 20.7519 80.1061 20.7519C82.903 20.7519 84.8421 18.5512 84.8421 15.7208ZM71.8101 15.7208C71.8101 11.2245 75.116 7.54639 79.4705 7.54639C81.7592 7.54639 83.6661 8.70939 84.5558 9.96696V7.86078H88.0524V23.5812H84.5558V21.4756C83.6661 22.7326 81.7592 23.8959 79.4704 23.8959C75.116 23.8959 71.8101 20.2175 71.8101 15.7208" fill="#FF6B12"/>
<path d="M39.1567 30.1536L42.5576 22.7329L35.7238 7.86084H39.5698L44.433 18.9915L49.328 7.86084H53.2056L43.0026 30.1536H39.1567Z" fill="black"/>
<path d="M110.79 15.7208C110.79 12.891 108.851 10.6903 106.053 10.6903C103.256 10.6903 101.318 12.891 101.318 15.7208C101.318 18.5512 103.256 20.7519 106.053 20.7519C108.851 20.7519 110.79 18.5512 110.79 15.7208ZM97.7577 15.7208C97.7577 11.2245 101.063 7.54639 105.418 7.54639C107.707 7.54639 109.614 8.70939 110.503 9.96696V7.86078H114V23.5812H110.503V21.4756C109.614 22.7326 107.707 23.8959 105.418 23.8959C101.063 23.8959 97.7577 20.2175 97.7577 15.7208Z" fill="#FF6B12"/>
<path d="M95.1646 0H91.6683V23.5813H95.1646V0Z" fill="#FF6B12"/>
<path d="M56.7636 28.8086H55.9398V35.9048H56.7636V28.8086Z" fill="#FF6B12"/>
<path d="M62.3853 33.5392C62.397 33.3181 62.3627 33.097 62.2846 32.8895C62.2065 32.682 62.0861 32.4926 61.931 32.3329C61.7759 32.1733 61.5893 32.0468 61.3828 31.9614C61.1763 31.8759 60.9543 31.8333 60.7305 31.8361C60.5062 31.8331 60.2836 31.8755 60.0765 31.9608C59.8694 32.046 59.6822 32.1723 59.5263 32.3319C59.3704 32.4914 59.2491 32.6808 59.17 32.8885C59.0909 33.0961 59.0556 33.3176 59.0663 33.5392C59.0556 33.7608 59.091 33.9822 59.1701 34.1898C59.2493 34.3974 59.3705 34.5868 59.5264 34.7463C59.6823 34.9057 59.8696 35.032 60.0766 35.1172C60.2837 35.2024 60.5062 35.2448 60.7305 35.2418C60.9542 35.2446 61.1762 35.202 61.3827 35.1166C61.5892 35.0312 61.7757 34.9048 61.9308 34.7452C62.0859 34.5856 62.2063 34.3963 62.2845 34.1888C62.3626 33.9814 62.3969 33.7603 62.3853 33.5392ZM58.2246 33.5392C58.2197 33.2132 58.2812 32.8896 58.4057 32.5876C58.5301 32.2857 58.7148 32.0117 58.9487 31.782C59.1826 31.5524 59.461 31.3717 59.7672 31.2509C60.0733 31.1301 60.4009 31.0716 60.7305 31.079C61.059 31.0734 61.3854 31.1332 61.6902 31.2547C61.995 31.3763 62.2721 31.5571 62.5049 31.7866C62.7377 32.016 62.9215 32.2894 63.0455 32.5905C63.1695 32.8915 63.2311 33.2142 63.2266 33.5392C63.2311 33.8643 63.1695 34.1869 63.0455 34.4879C62.9215 34.789 62.7376 35.0623 62.5048 35.2918C62.272 35.5212 61.995 35.7021 61.6902 35.8236C61.3854 35.9451 61.059 36.0048 60.7305 35.9992C60.401 36.0066 60.0733 35.9481 59.7672 35.8274C59.4611 35.7066 59.1827 35.526 58.9487 35.2963C58.7148 35.0667 58.5301 34.7927 58.4057 34.4908C58.2813 34.1889 58.2197 33.8652 58.2246 33.5392Z" fill="#FF6B12"/>
<path d="M68.4665 33.5392C68.4782 33.3181 68.444 33.097 68.3659 32.8895C68.2878 32.682 68.1674 32.4926 68.0123 32.3329C67.8573 32.1733 67.6707 32.0468 67.4642 31.9614C67.2577 31.8759 67.0357 31.8333 66.8119 31.8361C66.5876 31.8331 66.3651 31.8755 66.158 31.9608C65.9509 32.046 65.7636 32.1723 65.6077 32.3319C65.4518 32.4914 65.3306 32.6808 65.2514 32.8885C65.1723 33.0961 65.137 33.3176 65.1477 33.5392C65.1371 33.7608 65.1724 33.9822 65.2516 34.1898C65.3307 34.3974 65.452 34.5868 65.6079 34.7463C65.7638 34.9057 65.951 35.032 66.1581 35.1172C66.3652 35.2024 66.5877 35.2448 66.8119 35.2418C67.0357 35.2446 67.2576 35.202 67.4641 35.1166C67.6705 35.0312 67.8571 34.9048 68.0122 34.7452C68.1673 34.5856 68.2876 34.3962 68.3657 34.1888C68.4439 33.9814 68.4782 33.7603 68.4665 33.5392ZM64.3061 33.5392C64.3011 33.2132 64.3627 32.8896 64.4871 32.5876C64.6115 32.2857 64.7962 32.0117 65.0301 31.782C65.2641 31.5524 65.5424 31.3717 65.8486 31.2509C66.1547 31.1301 66.4824 31.0716 66.8119 31.079C67.1405 31.0734 67.4669 31.1331 67.7717 31.2547C68.0765 31.3762 68.3536 31.5571 68.5864 31.7866C68.8192 32.016 69.0031 32.2894 69.1271 32.5904C69.2512 32.8915 69.3128 33.2142 69.3084 33.5392C69.3128 33.8643 69.2511 34.1869 69.1271 34.488C69.0031 34.789 68.8192 35.0624 68.5864 35.2918C68.3535 35.5212 68.0765 35.7021 67.7717 35.8236C67.4669 35.9451 67.1405 36.0048 66.8119 35.9992C66.4824 36.0066 66.1548 35.9481 65.8486 35.8274C65.5425 35.7066 65.2641 35.526 65.0302 35.2963C64.7962 35.0667 64.6115 34.7927 64.4871 34.4908C64.3627 34.1889 64.3011 33.8652 64.3061 33.5392Z" fill="#FF6B12"/>
<path d="M71.5924 33.5399V35.9053H70.7701V28.8091H71.5924V33.0197L73.6777 31.1742H74.768L72.415 33.2654L75.2941 35.9053H74.1845L71.5924 33.5399Z" fill="#FF6B12"/>
<path d="M78.888 31.9211H77.8741V31.1736H78.888V30.218C78.888 29.2343 79.5094 28.7513 80.3513 28.7513C80.6053 28.7489 80.8578 28.7905 81.0973 28.8743V29.5937C80.9071 29.5271 80.7062 29.495 80.5044 29.4992C79.9686 29.4992 79.7105 29.6979 79.7105 30.3033V31.1736H81.0973V31.9211H79.7105V35.9046H78.888L78.888 31.9211Z" fill="#FF6B12"/>
<path d="M85.9357 33.5392C85.9475 33.3181 85.9132 33.097 85.8351 32.8895C85.757 32.682 85.6367 32.4926 85.4816 32.333C85.3265 32.1733 85.1399 32.0468 84.9334 31.9614C84.727 31.8759 84.5049 31.8333 84.2811 31.8361C84.0568 31.8331 83.8343 31.8755 83.6272 31.9608C83.4201 32.046 83.2328 32.1723 83.0769 32.3319C82.921 32.4914 82.7998 32.6808 82.7207 32.8885C82.6416 33.0961 82.6063 33.3176 82.6169 33.5392C82.6063 33.7608 82.6417 33.9822 82.7208 34.1898C82.7999 34.3974 82.9212 34.5868 83.0771 34.7463C83.233 34.9058 83.4202 35.032 83.6273 35.1172C83.8344 35.2024 84.0569 35.2448 84.2811 35.2418C84.5049 35.2446 84.7269 35.202 84.9333 35.1166C85.1398 35.0312 85.3263 34.9048 85.4814 34.7452C85.6365 34.5856 85.7568 34.3962 85.835 34.1888C85.9131 33.9814 85.9474 33.7603 85.9357 33.5392ZM81.7753 33.5392C81.7703 33.2132 81.8319 32.8896 81.9563 32.5876C82.0807 32.2857 82.2654 32.0117 82.4993 31.782C82.7333 31.5523 83.0116 31.3716 83.3178 31.2508C83.624 31.1301 83.9516 31.0716 84.2811 31.079C84.6097 31.0734 84.9361 31.1332 85.241 31.2547C85.5458 31.3762 85.8228 31.5571 86.0557 31.7866C86.2885 32.016 86.4724 32.2894 86.5964 32.5904C86.7204 32.8915 86.782 33.2142 86.7776 33.5392C86.782 33.8643 86.7204 34.1869 86.5964 34.488C86.4723 34.789 86.2885 35.0624 86.0556 35.2918C85.8228 35.5212 85.5457 35.7021 85.2409 35.8236C84.9361 35.9451 84.6097 36.0048 84.2811 35.9992C83.9516 36.0066 83.624 35.9482 83.3178 35.8274C83.0117 35.7067 82.7333 35.5261 82.4994 35.2964C82.2654 35.0667 82.0807 34.7927 81.9563 34.4908C81.8319 34.1889 81.7703 33.8652 81.7753 33.5392Z" fill="#FF6B12"/>
<path d="M88.2393 31.1741H89.0615V32.0922C89.155 31.8131 89.3344 31.57 89.5745 31.3969C89.8147 31.2237 90.1036 31.1293 90.4008 31.1268C90.5262 31.1255 90.6513 31.1382 90.7738 31.1648V32.0069C90.6315 31.9491 90.478 31.9232 90.3243 31.9309C89.7216 31.9309 89.0615 32.4511 89.0615 33.5589V35.9049H88.2393L88.2393 31.1741Z" fill="#FF6B12"/>
<path d="M103.309 33.5394C103.322 33.32 103.289 33.1003 103.213 32.8938C103.137 32.6872 103.02 32.4981 102.868 32.3379C102.716 32.1777 102.532 32.0498 102.329 31.9619C102.125 31.874 101.905 31.828 101.683 31.8267C101.46 31.8271 101.24 31.8723 101.035 31.9598C100.831 32.0472 100.646 32.1749 100.493 32.3352C100.34 32.4955 100.222 32.6849 100.145 32.892C100.069 33.099 100.036 33.3193 100.048 33.5394C100.036 33.7595 100.069 33.9798 100.145 34.1868C100.222 34.3938 100.34 34.5832 100.493 34.7435C100.646 34.9037 100.831 35.0314 101.035 35.1188C101.24 35.2062 101.46 35.2515 101.683 35.2518C101.905 35.2505 102.125 35.2046 102.329 35.1167C102.532 35.0289 102.716 34.901 102.868 34.7408C103.02 34.5806 103.137 34.3915 103.213 34.185C103.289 33.9785 103.322 33.7588 103.309 33.5394ZM99.2158 33.5394C99.2158 32.1859 100.22 31.0792 101.559 31.0792C101.885 31.0764 102.208 31.1495 102.5 31.2925C102.792 31.4355 103.047 31.6444 103.242 31.9024V31.1737H104.065V35.9048H103.242V35.1761C103.047 35.4341 102.792 35.643 102.5 35.786C102.208 35.929 101.885 36.0021 101.559 35.9994C100.22 35.9994 99.2158 34.8921 99.2158 33.5394Z" fill="#FF6B12"/>
<path d="M105.9 31.1741H106.722V32.0922C106.815 31.8131 106.995 31.5699 107.235 31.3968C107.475 31.2236 107.764 31.1292 108.061 31.1268C108.187 31.1255 108.312 31.1383 108.434 31.1648V32.0069C108.292 31.9492 108.138 31.9232 107.985 31.9309C107.382 31.9309 106.722 32.4511 106.722 33.5589V35.9049H105.9L105.9 31.1741Z" fill="#FF6B12"/>
<path d="M113.244 33.5394C113.257 33.32 113.224 33.1003 113.148 32.8937C113.072 32.6872 112.955 32.4981 112.803 32.3379C112.651 32.1777 112.467 32.0497 112.264 31.9618C112.06 31.874 111.84 31.828 111.618 31.8267C111.395 31.827 111.175 31.8723 110.97 31.9597C110.766 32.0472 110.581 32.1749 110.428 32.3352C110.275 32.4954 110.157 32.6849 110.08 32.8919C110.004 33.099 109.971 33.3193 109.983 33.5394C109.971 33.7595 110.004 33.9797 110.08 34.1868C110.157 34.3938 110.275 34.5832 110.428 34.7434C110.581 34.9037 110.766 35.0314 110.97 35.1188C111.175 35.2062 111.395 35.2514 111.618 35.2518C111.84 35.2505 112.06 35.2045 112.264 35.1167C112.467 35.0288 112.651 34.9009 112.803 34.7408C112.955 34.5806 113.072 34.3915 113.148 34.185C113.224 33.9784 113.257 33.7588 113.244 33.5394ZM109.151 33.5394C109.151 32.1858 110.155 31.0791 111.494 31.0791C111.82 31.0764 112.143 31.1494 112.435 31.2924C112.727 31.4354 112.982 31.6444 113.177 31.9024V28.8086H114V35.9048H113.177V35.1761C112.982 35.4341 112.727 35.643 112.435 35.786C112.143 35.929 111.82 36.0021 111.494 35.9993C110.155 35.9993 109.151 34.8921 109.151 33.5394Z" fill="#FF6B12"/>
<path d="M94.8948 32.5079L93.7185 35.9049H92.9916L91.3655 31.1741H92.2262L93.3836 34.6276L94.5795 31.1741H95.2106L96.4062 34.6276L97.5634 31.1741H98.4337L96.8077 35.9049H96.081L94.8948 32.5079Z" fill="#FF6B12"/>
</svg>
