<svg width="168" height="36" viewBox="0 0 168 36" fill="none" xmlns="http://www.w3.org/2000/svg">
<path d="M84.4491 24.6922C85.5397 24.7087 86.6153 24.4368 87.5669 23.904C88.4948 23.3744 89.255 22.5947 89.7608 21.6541C90.2922 20.6048 90.5691 19.4453 90.5691 18.2693C90.5691 17.0934 90.2922 15.9339 89.7608 14.8846C89.2551 13.9439 88.4948 13.1642 87.5669 12.6347C86.6092 12.1174 85.5378 11.8465 84.4492 11.8465C83.3606 11.8465 82.2891 12.1174 81.3314 12.6347C80.4036 13.1644 79.6434 13.944 79.1375 14.8846C78.6061 15.9339 78.3292 17.0934 78.3292 18.2693C78.3292 19.4453 78.6061 20.6048 79.1375 21.6541C79.6434 22.5946 80.4036 23.3742 81.3314 23.904C82.2829 24.4368 83.3585 24.7087 84.4491 24.6922ZM95.3038 0V28.5386H90.6846V25.8848C89.9018 26.85 88.8894 27.6037 87.74 28.0771C86.5122 28.5759 85.197 28.8244 83.8717 28.808C82.0119 28.8367 80.176 28.3862 78.5409 27.5C76.9753 26.6406 75.6869 25.3533 74.8267 23.7889C73.9416 22.087 73.4795 20.1971 73.4795 18.2791C73.4795 16.3611 73.9416 14.4713 74.8267 12.7694C75.6914 11.213 76.979 9.93287 78.5409 9.07681C80.176 8.19082 82.0119 7.74052 83.8717 7.76927C85.1496 7.75383 86.4181 7.98904 87.6054 8.46158C88.7202 8.91295 89.7102 9.62522 90.4922 10.5385V0H95.3038Z" fill="#3D4041"/>
<path d="M109.944 24.6924C110.759 24.7173 111.569 24.5729 112.324 24.2684C113.08 23.9639 113.764 23.5059 114.332 22.9234C115.45 21.6299 116.065 19.9782 116.065 18.2694C116.065 16.5607 115.45 14.909 114.332 13.6155C113.764 13.033 113.08 12.5749 112.324 12.2704C111.569 11.9659 110.759 11.8216 109.944 11.8466C109.133 11.8204 108.325 11.9642 107.573 12.2689C106.82 12.5735 106.14 13.0323 105.576 13.6155C104.47 14.9144 103.863 16.5641 103.863 18.2694C103.863 19.9748 104.47 21.6245 105.576 22.9234C106.14 23.5066 106.82 23.9653 107.573 24.27C108.325 24.5746 109.133 24.7185 109.944 24.6924ZM120.799 8.00024V28.5387H116.218V25.885C115.435 26.8501 114.423 27.6038 113.273 28.0772C112.046 28.576 110.731 28.8245 109.405 28.8082C107.533 28.8397 105.684 28.3893 104.036 27.5001C102.477 26.6472 101.195 25.3661 100.341 23.8081C99.4681 22.0955 99.013 20.2009 99.013 18.279C99.013 16.3572 99.4681 14.4626 100.341 12.75C101.199 11.2004 102.481 9.92654 104.036 9.07693C105.684 8.18797 107.533 7.73769 109.405 7.76939C110.664 7.75503 111.914 7.99033 113.081 8.4617C114.189 8.91756 115.182 9.61379 115.987 10.5V8.00026L120.799 8.00024Z" fill="#3D4041"/>
<path d="M132.769 28.808C131.864 28.8621 130.956 28.7352 130.101 28.4346C129.245 28.134 128.457 27.6659 127.785 27.0576C127.164 26.4003 126.684 25.6225 126.376 24.7723C126.068 23.9222 125.939 23.0179 125.995 22.1155V0H130.806V21.7695C130.806 23.8205 131.768 24.8461 133.693 24.8462C134.293 24.8557 134.886 24.7239 135.425 24.4614L135.656 28.3077C134.731 28.6459 133.754 28.8153 132.769 28.808" fill="#3D4041"/>
<path d="M148.166 24.6924C148.98 24.7173 149.79 24.5729 150.545 24.2684C151.301 23.9639 151.984 23.5059 152.553 22.9234C153.671 21.6299 154.285 19.9782 154.285 18.2694C154.285 16.5607 153.671 14.909 152.553 13.6155C151.984 13.033 151.301 12.575 150.545 12.2705C149.79 11.966 148.98 11.8216 148.166 11.8466C147.354 11.8204 146.546 11.9643 145.794 12.2689C145.041 12.5736 144.361 13.0323 143.797 13.6155C142.691 14.9145 142.084 16.5642 142.084 18.2694C142.084 19.9747 142.691 21.6244 143.797 22.9234C144.361 23.5066 145.041 23.9653 145.794 24.2699C146.546 24.5746 147.354 24.7185 148.166 24.6924ZM159.02 8.00024V28.5388H154.439V25.885C153.656 26.8501 152.644 27.6039 151.495 28.0772C150.267 28.576 148.952 28.8245 147.626 28.8082C145.754 28.8398 143.905 28.3894 142.257 27.5001C140.698 26.6473 139.415 25.3661 138.562 23.8081C137.689 22.0956 137.234 20.2009 137.234 18.2791C137.234 16.3572 137.689 14.4625 138.562 12.75C139.42 11.2004 140.702 9.9265 142.257 9.07693C143.905 8.18792 145.754 7.73763 147.626 7.76939C148.885 7.75504 150.135 7.99035 151.302 8.46171C152.41 8.91757 153.403 9.6138 154.208 10.5001V8.00027L159.02 8.00024Z" fill="#3D4041"/>
<path d="M10.8543 24.6924C11.6657 24.7185 12.4735 24.5746 13.2258 24.2699C13.9781 23.9653 14.6583 23.5066 15.2225 22.9234C16.3283 21.6245 16.9355 19.9748 16.9355 18.2695C16.9355 16.5641 16.3283 14.9144 15.2225 13.6155C14.6583 13.0323 13.9781 12.5736 13.2258 12.269C12.4735 11.9643 11.6657 11.8205 10.8543 11.8467C9.76369 11.8302 8.68806 12.1021 7.73647 12.6348C6.8085 13.1644 6.04824 13.9441 5.54248 14.8848C5.0111 15.9341 4.73422 17.0935 4.73422 18.2695C4.73422 19.4455 5.0111 20.605 5.54248 21.6543C6.04832 22.5949 6.80856 23.3745 7.73647 23.9042C8.68806 24.437 9.76369 24.7089 10.8543 24.6924ZM11.3931 7.7694C13.2655 7.73759 15.1146 8.18788 16.7624 9.07694C18.3244 9.93293 19.6122 11.2131 20.4768 12.7695C21.3619 14.4714 21.8239 16.3613 21.8239 18.2793C21.8239 20.1973 21.3619 22.0871 20.4768 23.789C19.6166 25.3535 18.3282 26.6408 16.7624 27.5001C15.1147 28.3894 13.2655 28.8399 11.3931 28.8082C10.1589 28.8653 8.92744 28.6464 7.78872 28.1673C6.65 27.6882 5.63271 26.9611 4.81111 26.0389V36.0001H0V8.00027H4.58014V10.6926C5.36319 9.72766 6.37549 8.97391 7.52475 8.50007C8.75256 8.00131 10.0678 7.75288 11.3931 7.7694Z" fill="#3D4041"/>
<path d="M35.1877 24.6924C36.0018 24.7173 36.8122 24.5729 37.5676 24.2684C38.323 23.9639 39.0067 23.5059 39.5756 22.9234C40.6929 21.6299 41.3075 19.9781 41.3075 18.2694C41.3075 16.5608 40.6929 14.909 39.5756 13.6155C39.0068 13.033 38.323 12.575 37.5676 12.2705C36.8122 11.966 36.0018 11.8217 35.1877 11.8466C34.3762 11.8204 33.5683 11.9643 32.8158 12.269C32.0634 12.5736 31.3831 13.0323 30.8188 13.6155C29.7131 14.9145 29.106 16.5641 29.106 18.2694C29.106 19.9747 29.7131 21.6244 30.8188 22.9234C31.3831 23.5066 32.0634 23.9653 32.8159 24.2699C33.5683 24.5746 34.3762 24.7185 35.1877 24.6924ZM46.0417 8.00024V28.5387H41.4612V25.885C40.6785 26.8502 39.6662 27.6039 38.5168 28.0772C37.289 28.576 35.9738 28.8245 34.6485 28.8082C32.776 28.8398 30.9269 28.3894 29.279 27.5001C27.7198 26.6473 26.4376 25.3661 25.584 23.8081C24.711 22.0956 24.256 20.2009 24.256 18.2791C24.256 16.3572 24.711 14.4626 25.584 12.75C26.4423 11.2004 27.7238 9.92649 29.279 9.07693C30.9269 8.18792 32.7761 7.73764 34.6485 7.76939C35.9075 7.75505 37.1569 7.99036 38.3243 8.46171C39.4322 8.91757 40.4248 9.6138 41.2304 10.5V8.00027L46.0417 8.00024Z" fill="#3D4041"/>
<path d="M58.0856 21.9035L49.1729 35.9998H54.929L60.975 26.438L61.6858 25.3147L63.8535 21.8859L58.2696 13.1494L54.8702 7.77197H49.1729L53.0512 14.0015L58.0856 21.9035Z" fill="#EAAC50"/>
<path d="M73.2317 7.77197H67.4748L62.9907 14.8638L65.8843 19.3924L73.2317 7.77197Z" fill="#3D4041"/>
<path d="M166.714 6.72801C166.504 6.51759 166.254 6.35069 165.978 6.23682C165.703 6.12294 165.409 6.06431 165.111 6.06431C164.813 6.0643 164.518 6.12292 164.243 6.23679C163.968 6.35066 163.718 6.51757 163.507 6.72798C163.297 6.93839 163.13 7.18817 163.016 7.46308C162.902 7.738 162.843 8.03263 162.843 8.33019C162.843 8.62775 162.902 8.92241 163.016 9.19732C163.13 9.47224 163.297 9.72204 163.507 9.93245L163.508 9.93176C163.933 10.3555 164.51 10.5932 165.11 10.5928C165.711 10.5924 166.286 10.3538 166.711 9.9294C167.136 9.50505 167.375 8.92962 167.375 8.3295C167.375 7.72938 167.137 7.15362 166.713 6.72867L166.714 6.72801ZM164.604 8.06954H165.026C165.197 8.07825 165.37 8.06676 165.539 8.03529C165.604 8.01436 165.66 7.97231 165.698 7.91582C165.739 7.85282 165.759 7.77901 165.756 7.70423C165.76 7.62077 165.733 7.53884 165.68 7.47428C165.624 7.41296 165.547 7.37364 165.465 7.36337C165.419 7.35749 165.28 7.35389 165.049 7.35389H164.604V8.06954ZM164.034 9.69786V6.87651H165.234C165.456 6.86614 165.678 6.89187 165.891 6.95265C166.028 7.00327 166.144 7.0984 166.22 7.22276C166.303 7.35599 166.346 7.51037 166.343 7.66729C166.35 7.8596 166.283 8.04728 166.157 8.19212C166.007 8.34217 165.809 8.4344 165.598 8.45246C165.711 8.51625 165.814 8.59617 165.903 8.68971C166.025 8.83256 166.133 8.98579 166.228 9.14762L166.573 9.69786H165.891L165.479 9.08382C165.387 8.93938 165.287 8.80083 165.178 8.66898C165.131 8.61687 165.072 8.57661 165.007 8.55146C164.913 8.52644 164.816 8.51585 164.719 8.52007H164.604V9.69789L164.034 9.69786ZM165.111 5.44312C165.49 5.44285 165.866 5.51742 166.216 5.66251C166.566 5.80761 166.885 6.02038 167.153 6.28865H167.154C167.422 6.55666 167.635 6.87484 167.78 7.22504C167.925 7.57523 168 7.95057 168 8.32963C168 8.70868 167.925 9.08402 167.78 9.43422C167.635 9.78441 167.422 10.1026 167.154 10.3706L167.153 10.3718C166.884 10.6399 166.566 10.8525 166.215 10.9976C165.865 11.1427 165.489 11.2174 165.11 11.2174C164.731 11.2174 164.355 11.1427 164.005 10.9976C163.654 10.8525 163.336 10.6399 163.068 10.3718V10.3706C162.664 9.96688 162.389 9.45252 162.277 8.89256C162.166 8.33259 162.223 7.75217 162.442 7.22473C162.66 6.69728 163.031 6.24651 163.506 5.92939C163.981 5.61226 164.539 5.44303 165.111 5.44312Z" fill="#3D4041"/>
</svg>
