<svg width="159" height="56" viewBox="0 0 159 56" fill="none" xmlns="http://www.w3.org/2000/svg">
<path d="M80.8145 40.2273C80.8145 38.0264 79.3177 36.3145 77.1586 36.3145C74.975 36.3145 73.4782 38.0264 73.4782 40.2273C73.4782 42.4285 74.975 44.1404 77.1586 44.1404C79.3177 44.1404 80.8145 42.4285 80.8145 40.2273ZM71 51.4525V34.1137H73.6989V35.7521C74.3859 34.774 75.8825 33.8692 77.6493 33.8692C81.0106 33.8692 83.5624 36.7302 83.5624 40.2273C83.5624 43.7247 81.0106 46.5857 77.6493 46.5857C75.8825 46.5857 74.3859 45.6809 73.6989 44.703V51.4525H71Z" fill="white"/>
<path d="M94.8429 40.2273C94.8429 38.0263 93.3461 36.3147 91.1871 36.3147C89.028 36.3147 87.5312 38.0263 87.5312 40.2273C87.5312 42.4287 89.0281 44.1404 91.1871 44.1404C93.3461 44.1404 94.8429 42.4287 94.8429 40.2273ZM84.7831 40.2273C84.7831 36.7302 87.3351 33.8694 90.6964 33.8694C92.463 33.8694 93.9352 34.7739 94.622 35.752V34.1139H97.3211V46.3409H94.622V44.7032C93.9352 45.6809 92.463 46.5856 90.6964 46.5856C87.3351 46.5856 84.7831 43.7247 84.7831 40.2273Z" fill="white"/>
<path d="M121.946 40.2274C121.946 38.0265 120.449 36.3148 118.29 36.3148C116.131 36.3148 114.634 38.0265 114.634 40.2274C114.634 42.4288 116.131 44.1405 118.29 44.1405C120.449 44.1405 121.946 42.4288 121.946 40.2274ZM111.886 40.2274C111.886 36.7303 114.438 33.8695 117.799 33.8695C119.566 33.8695 121.038 34.7741 121.725 35.7522V28H124.424V46.341H121.725V44.7033C121.038 45.681 119.566 46.5858 117.799 46.5858C114.438 46.5858 111.886 43.7248 111.886 40.2274Z" fill="#FF6B12"/>
<path d="M136.492 40.2273C136.492 38.0263 134.995 36.3147 132.836 36.3147C130.677 36.3147 129.18 38.0263 129.18 40.2273C129.18 42.4287 130.677 44.1404 132.836 44.1404C134.995 44.1404 136.492 42.4287 136.492 40.2273ZM126.432 40.2273C126.432 36.7302 128.984 33.8694 132.346 33.8694C134.112 33.8694 135.584 34.7739 136.271 35.752V34.1139H138.97V46.3409H136.271V44.7032C135.584 45.6809 134.112 46.5856 132.346 46.5856C128.984 46.5856 126.432 43.7247 126.432 40.2273" fill="#FF6B12"/>
<path d="M101.226 51.4528L103.852 45.6812L98.5763 34.114H101.545L105.299 42.7712L109.078 34.114H112.071L104.195 51.4528H101.226Z" fill="white"/>
<path d="M156.522 40.2273C156.522 38.0263 155.025 36.3147 152.866 36.3147C150.707 36.3147 149.21 38.0263 149.21 40.2273C149.21 42.4287 150.707 44.1404 152.866 44.1404C155.025 44.1404 156.522 42.4287 156.522 40.2273ZM146.462 40.2273C146.462 36.7302 149.014 33.8694 152.375 33.8694C154.142 33.8694 155.614 34.7739 156.301 35.752V34.1139H159V46.3409H156.301V44.7032C155.614 45.6809 154.142 46.5856 152.375 46.5856C149.014 46.5856 146.462 43.7247 146.462 40.2273Z" fill="#FF6B12"/>
<path d="M144.46 28H141.762V46.341H144.46V28Z" fill="#FF6B12"/>
<path d="M114.818 50.4067H114.182V55.926H114.818V50.4067Z" fill="#FF6B12"/>
<path d="M119.157 54.0861C119.166 53.9141 119.14 53.7421 119.079 53.5808C119.019 53.4194 118.926 53.272 118.806 53.1479C118.687 53.0237 118.543 52.9254 118.383 52.8589C118.224 52.7924 118.052 52.7593 117.88 52.7615C117.707 52.7591 117.535 52.7921 117.375 52.8584C117.215 52.9248 117.071 53.023 116.95 53.1471C116.83 53.2712 116.736 53.4185 116.675 53.58C116.614 53.7415 116.587 53.9137 116.595 54.0861C116.587 54.2585 116.614 54.4307 116.675 54.5921C116.736 54.7536 116.83 54.9009 116.95 55.0249C117.071 55.149 117.215 55.2472 117.375 55.3134C117.535 55.3797 117.707 55.4127 117.88 55.4103C118.052 55.4125 118.224 55.3794 118.383 55.313C118.543 55.2466 118.687 55.1482 118.806 55.0241C118.926 54.9 119.019 54.7527 119.079 54.5914C119.14 54.43 119.166 54.2581 119.157 54.0861ZM115.945 54.0861C115.942 53.8326 115.989 53.5808 116.085 53.346C116.181 53.1112 116.324 52.8981 116.504 52.7194C116.685 52.5408 116.9 52.4003 117.136 52.3063C117.372 52.2124 117.625 52.1669 117.88 52.1726C118.133 52.1683 118.385 52.2147 118.621 52.3093C118.856 52.4038 119.07 52.5445 119.249 52.7229C119.429 52.9014 119.571 53.114 119.667 53.3482C119.762 53.5824 119.81 53.8333 119.807 54.0861C119.81 54.3389 119.762 54.5899 119.667 54.824C119.571 55.0582 119.429 55.2708 119.249 55.4492C119.07 55.6277 118.856 55.7683 118.621 55.8628C118.385 55.9573 118.133 56.0038 117.88 55.9994C117.625 56.0052 117.372 55.9597 117.136 55.8658C116.9 55.7719 116.685 55.6314 116.504 55.4527C116.324 55.2741 116.181 55.061 116.085 54.8262C115.989 54.5914 115.942 54.3397 115.945 54.0861Z" fill="#FF6B12"/>
<path d="M123.851 54.0861C123.86 53.9142 123.834 53.7422 123.774 53.5808C123.713 53.4194 123.621 53.2721 123.501 53.1479C123.381 53.0237 123.237 52.9254 123.078 52.8589C122.918 52.7924 122.747 52.7593 122.574 52.7615C122.401 52.7591 122.229 52.7921 122.069 52.8584C121.91 52.9248 121.765 53.023 121.645 53.1471C121.524 53.2712 121.431 53.4185 121.37 53.58C121.309 53.7415 121.281 53.9137 121.29 54.0861C121.281 54.2585 121.309 54.4307 121.37 54.5921C121.431 54.7536 121.524 54.9009 121.645 55.0249C121.765 55.149 121.91 55.2472 122.069 55.3134C122.229 55.3797 122.401 55.4127 122.574 55.4103C122.747 55.4125 122.918 55.3794 123.078 55.313C123.237 55.2465 123.381 55.1482 123.501 55.0241C123.62 54.9 123.713 54.7527 123.774 54.5913C123.834 54.43 123.86 54.2581 123.851 54.0861ZM120.64 54.0861C120.636 53.8326 120.684 53.5808 120.78 53.346C120.876 53.1112 121.018 52.8981 121.199 52.7194C121.379 52.5408 121.594 52.4003 121.831 52.3063C122.067 52.2124 122.32 52.1669 122.574 52.1726C122.828 52.1683 123.08 52.2147 123.315 52.3093C123.55 52.4038 123.764 52.5445 123.944 52.7229C124.124 52.9014 124.266 53.114 124.361 53.3482C124.457 53.5823 124.505 53.8333 124.501 54.0861C124.505 54.339 124.457 54.5899 124.361 54.824C124.266 55.0582 124.124 55.2708 123.944 55.4492C123.764 55.6277 123.55 55.7683 123.315 55.8628C123.08 55.9573 122.828 56.0038 122.574 55.9994C122.32 56.0052 122.067 55.9597 121.831 55.8658C121.594 55.7719 121.379 55.6314 121.199 55.4527C121.018 55.2741 120.876 55.061 120.78 54.8262C120.684 54.5914 120.636 54.3397 120.64 54.0861Z" fill="#FF6B12"/>
<path d="M126.264 54.0865V55.9262H125.63V50.407H126.264V53.6819L127.874 52.2465H128.716L126.899 53.873L129.122 55.9262H128.265L126.264 54.0865Z" fill="#FF6B12"/>
<path d="M131.896 52.8275H131.113V52.2461H131.896V51.5029C131.896 50.7378 132.376 50.3621 133.026 50.3621C133.222 50.3602 133.417 50.3926 133.602 50.4578V51.0173C133.455 50.9655 133.3 50.9406 133.144 50.9438C132.73 50.9438 132.531 51.0983 132.531 51.5692V52.2461H133.602V52.8275H132.531V55.9258H131.896L131.896 52.8275Z" fill="#FF6B12"/>
<path d="M137.336 54.0861C137.345 53.9142 137.319 53.7422 137.259 53.5808C137.198 53.4194 137.106 53.2721 136.986 53.1479C136.866 53.0237 136.722 52.9254 136.563 52.8589C136.403 52.7924 136.232 52.7593 136.059 52.7615C135.886 52.7591 135.714 52.7921 135.554 52.8584C135.395 52.9248 135.25 53.023 135.13 53.1471C135.009 53.2712 134.916 53.4185 134.855 53.58C134.794 53.7415 134.766 53.9137 134.775 54.0861C134.766 54.2585 134.794 54.4307 134.855 54.5921C134.916 54.7536 135.009 54.9009 135.13 55.0249C135.25 55.149 135.395 55.2472 135.554 55.3134C135.714 55.3797 135.886 55.4127 136.059 55.4103C136.232 55.4125 136.403 55.3794 136.563 55.313C136.722 55.2465 136.866 55.1482 136.986 55.0241C137.105 54.9 137.198 54.7527 137.259 54.5914C137.319 54.43 137.345 54.2581 137.336 54.0861ZM134.125 54.0861C134.121 53.8326 134.169 53.5808 134.265 53.346C134.361 53.1111 134.503 52.898 134.684 52.7194C134.864 52.5407 135.079 52.4002 135.316 52.3063C135.552 52.2123 135.805 52.1669 136.059 52.1726C136.313 52.1683 136.565 52.2147 136.8 52.3093C137.035 52.4038 137.249 52.5445 137.429 52.7229C137.609 52.9014 137.751 53.114 137.846 53.3482C137.942 53.5823 137.99 53.8333 137.986 54.0861C137.99 54.339 137.942 54.5899 137.846 54.824C137.751 55.0582 137.609 55.2708 137.429 55.4492C137.249 55.6277 137.035 55.7683 136.8 55.8628C136.565 55.9573 136.313 56.0038 136.059 55.9994C135.805 56.0052 135.552 55.9598 135.316 55.8658C135.079 55.7719 134.864 55.6314 134.684 55.4528C134.503 55.2742 134.361 55.0611 134.265 54.8262C134.169 54.5914 134.121 54.3397 134.125 54.0861Z" fill="#FF6B12"/>
<path d="M139.115 52.2466H139.749V52.9607C139.821 52.7436 139.96 52.5545 140.145 52.4198C140.331 52.2852 140.554 52.2117 140.783 52.2098C140.88 52.2088 140.977 52.2187 141.071 52.2393V52.8943C140.961 52.8494 140.843 52.8292 140.724 52.8352C140.259 52.8352 139.749 53.2398 139.749 54.1014V55.9261H139.115L139.115 52.2466Z" fill="#FF6B12"/>
<path d="M150.748 54.0862C150.757 53.9155 150.732 53.7447 150.674 53.584C150.615 53.4234 150.524 53.2763 150.407 53.1517C150.289 53.0271 150.148 52.9276 149.991 52.8592C149.833 52.7909 149.664 52.7551 149.492 52.7541C149.32 52.7544 149.15 52.7896 148.992 52.8576C148.834 52.9256 148.692 53.0249 148.574 53.1496C148.456 53.2742 148.364 53.4216 148.305 53.5826C148.246 53.7437 148.221 53.915 148.23 54.0862C148.221 54.2574 148.246 54.4287 148.305 54.5897C148.364 54.7507 148.456 54.898 148.574 55.0227C148.692 55.1473 148.834 55.2466 148.992 55.3146C149.15 55.3826 149.32 55.4178 149.492 55.4181C149.664 55.4171 149.833 55.3813 149.991 55.313C150.148 55.2447 150.289 55.1452 150.407 55.0206C150.524 54.896 150.615 54.7489 150.674 54.5883C150.732 54.4277 150.757 54.2568 150.748 54.0862ZM147.588 54.0862C147.588 53.0334 148.363 52.1727 149.397 52.1727C149.648 52.1705 149.897 52.2273 150.123 52.3386C150.349 52.4498 150.545 52.6123 150.696 52.813V52.2462H151.331V55.926H150.696V55.3592C150.545 55.5598 150.349 55.7223 150.123 55.8335C149.897 55.9448 149.648 56.0016 149.397 55.9995C148.363 55.9995 147.588 55.1383 147.588 54.0862Z" fill="#FF6B12"/>
<path d="M152.747 52.2466H153.382V52.9607C153.454 52.7436 153.593 52.5544 153.778 52.4198C153.963 52.2851 154.186 52.2117 154.416 52.2098C154.513 52.2088 154.609 52.2187 154.704 52.2393V52.8943C154.594 52.8494 154.475 52.8292 154.357 52.8352C153.891 52.8352 153.382 53.2398 153.382 54.1014V55.9261H152.747L152.747 52.2466Z" fill="#FF6B12"/>
<path d="M158.417 54.0862C158.426 53.9156 158.401 53.7447 158.343 53.5841C158.284 53.4234 158.193 53.2763 158.076 53.1517C157.959 53.0271 157.817 52.9276 157.66 52.8593C157.503 52.7909 157.333 52.7552 157.162 52.7542C156.989 52.7544 156.819 52.7896 156.661 52.8576C156.503 52.9256 156.361 53.025 156.243 53.1496C156.125 53.2743 156.033 53.4216 155.974 53.5827C155.915 53.7437 155.89 53.915 155.899 54.0862C155.89 54.2574 155.915 54.4287 155.974 54.5898C156.034 54.7508 156.125 54.8981 156.243 55.0227C156.361 55.1474 156.504 55.2467 156.661 55.3147C156.819 55.3826 156.99 55.4178 157.162 55.4181C157.333 55.4171 157.503 55.3814 157.66 55.313C157.817 55.2447 157.958 55.1452 158.076 55.0206C158.193 54.8961 158.284 54.749 158.343 54.5884C158.401 54.4277 158.426 54.2569 158.417 54.0862ZM155.257 54.0862C155.257 53.0335 156.032 52.1727 157.066 52.1727C157.318 52.1706 157.566 52.2274 157.792 52.3386C158.018 52.4498 158.214 52.6123 158.365 52.813V50.4067H159V55.926H158.365V55.3592C158.214 55.5599 158.018 55.7224 157.792 55.8336C157.566 55.9448 157.318 56.0016 157.066 55.9995C156.032 55.9995 155.257 55.1383 155.257 54.0862Z" fill="#FF6B12"/>
<path d="M144.252 53.284L143.344 55.9261H142.783L141.528 52.2466H142.192L143.086 54.9327L144.009 52.2466H144.496L145.419 54.9327L146.312 52.2466H146.984L145.729 55.9261H145.168L144.252 53.284Z" fill="#FF6B12"/>
<path d="M8.63981 45.9999H0L5.27825 16.1157C5.50665 14.8224 6.18419 13.6508 7.19187 12.8066C8.19955 11.9625 9.47293 11.4997 10.7884 11.4997H14.7332L8.63981 45.9999Z" fill="white"/>
<path d="M26.1354 34.5H13.5505L17.613 11.4998H30.4471C30.9918 11.4998 31.5299 11.6189 32.0236 11.8488C32.5172 12.0786 32.9545 12.4136 33.3046 12.8302C33.6548 13.2468 33.9093 13.7348 34.0502 14.2601C34.1912 14.7854 34.2153 15.3351 34.1207 15.8706L31.6455 29.8843C31.4171 31.1775 30.7395 32.3491 29.7318 33.1932C28.7242 34.0373 27.4508 34.5 26.1354 34.5" fill="white"/>
<path d="M57.8145 34.5002H53.8696L59.963 0H68.6028L63.3246 29.8845C63.0962 31.1778 62.4186 32.3493 61.4109 33.1934C60.4033 34.0376 59.1299 34.5002 57.8145 34.5002Z" fill="#FF6B12"/>
<path d="M50.9895 34.5H38.1553C37.6106 34.4999 37.0725 34.3808 36.5789 34.151C36.0852 33.9212 35.648 33.5862 35.2978 33.1697C34.9477 32.7531 34.6932 32.2651 34.5522 31.7398C34.4112 31.2146 34.3871 30.6649 34.4817 30.1294L36.9569 16.1157C37.1853 14.8224 37.8629 13.6508 38.8707 12.8067C39.8784 11.9625 41.1518 11.4998 42.4673 11.4998H55.0519L50.9895 34.5Z" fill="#FF6B12"/>
<path d="M72.6702 17.6305C72.3016 17.6337 71.9362 17.5634 71.5952 17.4238C71.2542 17.2842 70.9446 17.0781 70.6844 16.8175C70.4242 16.5569 70.2186 16.2471 70.0799 15.9063C69.9411 15.5655 69.8718 15.2004 69.8761 14.8325C69.871 14.4613 69.94 14.0929 70.0791 13.7487C70.2182 13.4045 70.4246 13.0915 70.6863 12.8278C70.948 12.5642 71.2597 12.3552 71.6032 12.2132C71.9467 12.0712 72.3151 11.999 72.6869 12.0008C73.0554 11.9976 73.4209 12.0679 73.7619 12.2075C74.1029 12.3471 74.4125 12.5532 74.6727 12.8138C74.9329 13.0744 75.1384 13.3841 75.2772 13.725C75.416 14.0658 75.4853 14.4309 75.481 14.7988C75.4861 15.1699 75.4171 15.5384 75.278 15.8826C75.1389 16.2268 74.9325 16.5399 74.6708 16.8035C74.4091 17.0672 74.0974 17.2761 73.7539 17.4181C73.4104 17.5601 73.042 17.6323 72.6702 17.6305V17.6305ZM72.6878 11.4998C71.8059 11.4992 70.9598 11.848 70.3353 12.4697C69.7107 13.0914 69.3589 13.935 69.3569 14.8155C69.3542 15.2509 69.438 15.6826 69.6034 16.0855C69.7688 16.4884 70.0125 16.8547 70.3205 17.163C70.6285 17.4713 70.9947 17.7157 71.3978 17.8819C71.8009 18.0482 72.2331 18.133 72.6693 18.1315C73.5512 18.1321 74.3973 17.7832 75.0218 17.1615C75.6463 16.5397 75.998 15.696 75.9998 14.8155C76.0025 14.3801 75.9188 13.9485 75.7534 13.5456C75.588 13.1427 75.3443 12.7765 75.0364 12.4682C74.7284 12.1599 74.3623 11.9156 73.9592 11.7493C73.5561 11.5831 73.124 11.4983 72.6878 11.4998ZM71.9374 14.6968V13.574H72.8659C73.3176 13.574 73.59 13.7866 73.59 14.1182C73.59 14.4925 73.2835 14.6968 72.8405 14.6968H71.9374ZM74.0754 14.1099C74.0789 13.993 74.058 13.8767 74.0141 13.7684C73.9701 13.6601 73.904 13.5621 73.82 13.4806C73.5632 13.2519 73.2267 13.1327 72.8829 13.1487H71.469V16.304H71.9374V15.1132H72.7297L73.6581 16.304H74.2374L73.2578 15.0368C73.4837 15.008 73.6914 14.898 73.8419 14.7274C73.9924 14.5568 74.0754 14.3373 74.0754 14.1099" fill="#FF6B12"/>
</svg>
