<svg width="414" height="7" viewBox="0 0 414 7" fill="none" xmlns="http://www.w3.org/2000/svg">
<path d="M4.67501 0.942151C5.07508 0.454585 5.82108 0.454585 6.22114 0.942151L10.8954 6.63879H0.000732422L4.67501 0.942151Z" fill="#F4F6F8"/>
<path d="M15.5687 0.942151C15.9688 0.454585 16.7148 0.454585 17.1148 0.942151L21.7891 6.63879H10.8944L15.5687 0.942151Z" fill="#F4F6F8"/>
<path d="M26.4633 0.942151C26.8633 0.454585 27.6093 0.454585 28.0094 0.942151L32.6837 6.63879H21.789L26.4633 0.942151Z" fill="#F4F6F8"/>
<path d="M37.3584 0.942151C37.7584 0.454585 38.5044 0.454585 38.9045 0.942151L43.5788 6.63879H32.6841L37.3584 0.942151Z" fill="#F4F6F8"/>
<path d="M48.2541 0.942151C48.6542 0.454585 49.4002 0.454585 49.8002 0.942151L54.4745 6.63879H43.5798L48.2541 0.942151Z" fill="#F4F6F8"/>
<path d="M59.1486 0.942151C59.5487 0.454585 60.2947 0.454585 60.6948 0.942151L65.3691 6.63879H54.4744L59.1486 0.942151Z" fill="#F4F6F8"/>
<path d="M70.0432 0.942151C70.4432 0.454585 71.1892 0.454585 71.5893 0.942151L76.2636 6.63879H65.3689L70.0432 0.942151Z" fill="#F4F6F8"/>
<path d="M80.9377 0.942151C81.3378 0.454585 82.0838 0.454585 82.4838 0.942151L87.1581 6.63879H76.2634L80.9377 0.942151Z" fill="#F4F6F8"/>
<path d="M91.8318 0.942151C92.2318 0.454585 92.9778 0.454585 93.3779 0.942151L98.0522 6.63879H87.1575L91.8318 0.942151Z" fill="#F4F6F8"/>
<path d="M102.726 0.942151C103.126 0.454585 103.872 0.454585 104.272 0.942151L108.947 6.63879H98.0521L102.726 0.942151Z" fill="#F4F6F8"/>
<path d="M113.621 0.942151C114.021 0.454585 114.767 0.454585 115.167 0.942151L119.841 6.63879H108.947L113.621 0.942151Z" fill="#F4F6F8"/>
<path d="M124.516 0.942151C124.916 0.454585 125.662 0.454585 126.062 0.942151L130.736 6.63879H119.841L124.516 0.942151Z" fill="#F4F6F8"/>
<path d="M135.411 0.942151C135.811 0.454585 136.557 0.454585 136.957 0.942151L141.631 6.63879H130.736L135.411 0.942151Z" fill="#F4F6F8"/>
<path d="M146.306 0.942151C146.706 0.454585 147.452 0.454585 147.852 0.942151L152.527 6.63879H141.632L146.306 0.942151Z" fill="#F4F6F8"/>
<path d="M157.201 0.942151C157.601 0.454585 158.347 0.454585 158.747 0.942151L163.421 6.63879H152.527L157.201 0.942151Z" fill="#F4F6F8"/>
<path d="M168.095 0.942151C168.495 0.454585 169.241 0.454585 169.642 0.942151L174.316 6.63879H163.421L168.095 0.942151Z" fill="#F4F6F8"/>
<path d="M178.99 0.942151C179.39 0.454585 180.136 0.454585 180.536 0.942151L185.21 6.63879H174.316L178.99 0.942151Z" fill="#F4F6F8"/>
<path d="M189.884 0.942151C190.284 0.454585 191.03 0.454585 191.43 0.942151L196.104 6.63879H185.21L189.884 0.942151Z" fill="#F4F6F8"/>
<path d="M200.779 0.942151C201.179 0.454585 201.925 0.454585 202.325 0.942151L206.999 6.63879H196.104L200.779 0.942151Z" fill="#F4F6F8"/>
<path d="M211.673 0.942151C212.073 0.454585 212.819 0.454585 213.219 0.942151L217.894 6.63879H206.999L211.673 0.942151Z" fill="#F4F6F8"/>
<path d="M222.568 0.942151C222.968 0.454585 223.714 0.454585 224.114 0.942151L228.788 6.63879H217.893L222.568 0.942151Z" fill="#F4F6F8"/>
<path d="M233.462 0.942151C233.862 0.454585 234.608 0.454585 235.008 0.942151L239.683 6.63879H228.788L233.462 0.942151Z" fill="#F4F6F8"/>
<path d="M244.359 0.942151C244.759 0.454585 245.505 0.454585 245.905 0.942151L250.579 6.63879H239.684L244.359 0.942151Z" fill="#F4F6F8"/>
<path d="M255.253 0.942151C255.653 0.454585 256.399 0.454585 256.799 0.942151L261.474 6.63879H250.579L255.253 0.942151Z" fill="#F4F6F8"/>
<path d="M266.148 0.942151C266.548 0.454585 267.294 0.454585 267.694 0.942151L272.368 6.63879H261.473L266.148 0.942151Z" fill="#F4F6F8"/>
<path d="M277.042 0.942151C277.442 0.454585 278.188 0.454585 278.588 0.942151L283.263 6.63879H272.368L277.042 0.942151Z" fill="#F4F6F8"/>
<path d="M287.938 0.942151C288.338 0.454585 289.084 0.454585 289.484 0.942151L294.158 6.63879H283.263L287.938 0.942151Z" fill="#F4F6F8"/>
<path d="M298.831 0.942151C299.231 0.454585 299.977 0.454585 300.377 0.942151L305.051 6.63879H294.157L298.831 0.942151Z" fill="#F4F6F8"/>
<path d="M309.725 0.942151C310.125 0.454585 310.871 0.454585 311.272 0.942151L315.946 6.63879H305.051L309.725 0.942151Z" fill="#F4F6F8"/>
<path d="M320.62 0.942151C321.02 0.454585 321.766 0.454585 322.166 0.942151L326.84 6.63879H315.946L320.62 0.942151Z" fill="#F4F6F8"/>
<path d="M331.515 0.942151C331.915 0.454585 332.661 0.454585 333.061 0.942151L337.735 6.63879H326.84L331.515 0.942151Z" fill="#F4F6F8"/>
<path d="M342.41 0.942151C342.81 0.454585 343.556 0.454585 343.956 0.942151L348.631 6.63879H337.736L342.41 0.942151Z" fill="#F4F6F8"/>
<path d="M353.305 0.942151C353.705 0.454585 354.451 0.454585 354.852 0.942151L359.526 6.63879H348.631L353.305 0.942151Z" fill="#F4F6F8"/>
<path d="M364.2 0.942151C364.6 0.454585 365.346 0.454585 365.746 0.942151L370.42 6.63879H359.526L364.2 0.942151Z" fill="#F4F6F8"/>
<path d="M375.094 0.942151C375.495 0.454585 376.241 0.454585 376.641 0.942151L381.315 6.63879H370.42L375.094 0.942151Z" fill="#F4F6F8"/>
<path d="M385.989 0.942151C386.389 0.454585 387.135 0.454585 387.535 0.942151L392.209 6.63879H381.315L385.989 0.942151Z" fill="#F4F6F8"/>
<path d="M396.883 0.942151C397.283 0.454585 398.029 0.454585 398.429 0.942151L403.103 6.63879H392.209L396.883 0.942151Z" fill="#F4F6F8"/>
<path d="M407.778 0.942151C408.178 0.454585 408.924 0.454585 409.324 0.942151L413.998 6.63879H403.103L407.778 0.942151Z" fill="#F4F6F8"/>
</svg>
